<svg width="28" height="28" viewBox="0 0 28 28" fill="none" xmlns="http://www.w3.org/2000/svg">
<path fill-rule="evenodd" clip-rule="evenodd" d="M11.5735 23.8276H16.4267C19.8347 23.8276 21.5387 23.8276 22.7628 23.0246C23.2927 22.6769 23.7477 22.2302 24.1017 21.7099C24.9196 20.5081 24.9196 18.8351 24.9196 15.489C24.9196 12.143 24.9196 10.4699 24.1017 9.26812C23.7477 8.74784 23.2927 8.30113 22.7628 7.95349C21.9762 7.4375 20.9915 7.25306 19.4839 7.18714C18.7645 7.18714 18.145 6.65189 18.0039 5.95924C17.7923 4.92028 16.8632 4.17241 15.784 4.17241H12.2162C11.1371 4.17241 10.2079 4.92028 9.99628 5.95924C9.85518 6.65189 9.23575 7.18714 8.51631 7.18714C7.00869 7.25306 6.02399 7.4375 5.23744 7.95349C4.70753 8.30113 4.25254 8.74784 3.89847 9.26812C3.08057 10.4699 3.08057 12.143 3.08057 15.489C3.08057 18.8351 3.08057 20.5081 3.89847 21.7099C4.25254 22.2302 4.70753 22.6769 5.23744 23.0246C6.46151 23.8276 8.16552 23.8276 11.5735 23.8276ZM14.0001 11.0219C11.4873 11.0219 9.4503 13.0219 9.4503 15.489C9.4503 17.9561 11.4873 19.9561 14.0001 19.9561C16.5129 19.9561 18.5499 17.9561 18.5499 15.489C18.5499 13.0219 16.5129 11.0219 14.0001 11.0219ZM14.0001 12.8088C12.4924 12.8088 11.2702 14.0088 11.2702 15.489C11.2702 16.9693 12.4924 18.1693 14.0001 18.1693C15.5078 18.1693 16.73 16.9693 16.73 15.489C16.73 14.0088 15.5078 12.8088 14.0001 12.8088ZM19.1566 11.9154C19.1566 11.4219 19.564 11.0219 20.0665 11.0219H21.2798C21.7824 11.0219 22.1898 11.4219 22.1898 11.9154C22.1898 12.4088 21.7824 12.8088 21.2798 12.8088H20.0665C19.564 12.8088 19.1566 12.4088 19.1566 11.9154Z" fill="white"/>
</svg>
