<svg width="25" height="24" viewBox="0 0 25 24" fill="none" xmlns="http://www.w3.org/2000/svg">
<path d="M13.5 15.4C13.5 13.3258 13.5 12.2887 14.159 11.6444C14.818 11 15.8787 11 18 11C20.1213 11 21.182 11 21.841 11.6444C22.5 12.2887 22.5 13.3258 22.5 15.4V17.6C22.5 19.6742 22.5 20.7113 21.841 21.3556C21.182 22 20.1213 22 18 22C15.8787 22 14.818 22 14.159 21.3556C13.5 20.7113 13.5 19.6742 13.5 17.6V15.4Z" fill="url(#paint0_linear_267_869)"/>
<path d="M2.5 8.6C2.5 10.6742 2.5 11.7113 3.15901 12.3556C3.81802 13 4.87868 13 7 13C9.12132 13 10.182 13 10.841 12.3556C11.5 11.7113 11.5 10.6742 11.5 8.6V6.4C11.5 4.32582 11.5 3.28873 10.841 2.64437C10.182 2 9.12132 2 7 2C4.87868 2 3.81802 2 3.15901 2.64437C2.5 3.28873 2.5 4.32582 2.5 6.4V8.6Z" fill="url(#paint1_linear_267_869)"/>
<path d="M13.5 5.5C13.5 4.4128 13.5 3.8692 13.6713 3.44041C13.8996 2.86867 14.3376 2.41443 14.889 2.17761C15.3024 2 15.8266 2 16.875 2H19.125C20.1734 2 20.6976 2 21.111 2.17761C21.6624 2.41443 22.1004 2.86867 22.3287 3.44041C22.5 3.8692 22.5 4.4128 22.5 5.5C22.5 6.5872 22.5 7.1308 22.3287 7.55959C22.1004 8.13133 21.6624 8.58557 21.111 8.82239C20.6976 9 20.1734 9 19.125 9H16.875C15.8266 9 15.3024 9 14.889 8.82239C14.3376 8.58557 13.8996 8.13133 13.6713 7.55959C13.5 7.1308 13.5 6.5872 13.5 5.5Z" fill="url(#paint2_linear_267_869)"/>
<path d="M2.5 18.5C2.5 19.5872 2.5 20.1308 2.67127 20.5596C2.89963 21.1313 3.33765 21.5856 3.88896 21.8224C4.30245 22 4.82663 22 5.875 22H8.125C9.17337 22 9.69755 22 10.111 21.8224C10.6624 21.5856 11.1004 21.1313 11.3287 20.5596C11.5 20.1308 11.5 19.5872 11.5 18.5C11.5 17.4128 11.5 16.8692 11.3287 16.4404C11.1004 15.8687 10.6624 15.4144 10.111 15.1776C9.69755 15 9.17337 15 8.125 15H5.875C4.82663 15 4.30245 15 3.88896 15.1776C3.33765 15.4144 2.89963 15.8687 2.67127 16.4404C2.5 16.8692 2.5 17.4128 2.5 18.5Z" fill="url(#paint3_linear_267_869)"/>
<defs>
<linearGradient id="paint0_linear_267_869" x1="3" y1="2" x2="22" y2="22" gradientUnits="userSpaceOnUse">
<stop stop-color="#009DDF"/>
<stop offset="0.5" stop-color="#01D44A"/>
<stop offset="1" stop-color="#9DCF00"/>
</linearGradient>
<linearGradient id="paint1_linear_267_869" x1="3" y1="2" x2="22" y2="22" gradientUnits="userSpaceOnUse">
<stop stop-color="#009DDF"/>
<stop offset="0.5" stop-color="#01D44A"/>
<stop offset="1" stop-color="#9DCF00"/>
</linearGradient>
<linearGradient id="paint2_linear_267_869" x1="3" y1="2" x2="22" y2="22" gradientUnits="userSpaceOnUse">
<stop stop-color="#009DDF"/>
<stop offset="0.5" stop-color="#01D44A"/>
<stop offset="1" stop-color="#9DCF00"/>
</linearGradient>
<linearGradient id="paint3_linear_267_869" x1="3" y1="2" x2="22" y2="22" gradientUnits="userSpaceOnUse">
<stop stop-color="#009DDF"/>
<stop offset="0.5" stop-color="#01D44A"/>
<stop offset="1" stop-color="#9DCF00"/>
</linearGradient>
</defs>
</svg>
