<svg width="25" height="24" viewBox="0 0 25 24" fill="none" xmlns="http://www.w3.org/2000/svg">
<path d="M12.5 22C7.78595 22 5.42893 22 3.96447 20.5355C2.5 19.0711 2.5 16.714 2.5 12C2.5 7.28595 2.5 4.92893 3.96447 3.46447C5.42893 2 7.78595 2 12.5 2C17.214 2 19.5711 2 21.0355 3.46447C22.5 4.92893 22.5 7.28595 22.5 12C22.5 16.714 22.5 19.0711 21.0355 20.5355C19.5711 22 17.214 22 12.5 22Z" stroke="#AAAAAA" stroke-width="1.5"/>
<path d="M6 8.75732C6 6.95835 7.567 5.5 9.5 5.5C11.433 5.5 13 6.95835 13 8.75732C13 10.5422 11.8829 12.625 10.14 13.3698C9.73374 13.5434 9.26626 13.5434 8.85997 13.3698C7.11708 12.625 6 10.5422 6 8.75732Z" stroke="#AAAAAA" stroke-width="1.5"/>
<path d="M14.5004 13.9998L21.0004 20.4998M14.5004 13.9998L6.89453 21.6057M14.5004 13.9998L22.1072 6.39307" stroke="#AAAAAA" stroke-width="1.5" stroke-linecap="round"/>
<path d="M10.5 9C10.5 9.55228 10.0523 10 9.5 10C8.94772 10 8.5 9.55228 8.5 9C8.5 8.44772 8.94772 8 9.5 8C10.0523 8 10.5 8.44772 10.5 9Z" fill="#AAAAAA"/>
</svg>
