<svg width="25" height="24" viewBox="0 0 25 24" fill="none" xmlns="http://www.w3.org/2000/svg">
<path d="M8.85179 20.2418C9.69288 21.311 11.0142 22 12.5 22C13.9858 22 15.3071 21.311 16.1482 20.2418C13.7264 20.57 11.2736 20.57 8.85179 20.2418Z" fill="url(#paint0_linear_267_838)"/>
<path d="M19.2491 9V9.7041C19.2491 10.5491 19.4903 11.3752 19.9422 12.0782L21.0496 13.8012C22.0612 15.3749 21.289 17.5139 19.5296 18.0116C14.9273 19.3134 10.0727 19.3134 5.47036 18.0116C3.71105 17.5139 2.93882 15.3749 3.95036 13.8012L5.0578 12.0782C5.50972 11.3752 5.75087 10.5491 5.75087 9.7041V9C5.75087 5.13401 8.77256 2 12.5 2C16.2274 2 19.2491 5.13401 19.2491 9Z" fill="url(#paint1_linear_267_838)"/>
<defs>
<linearGradient id="paint0_linear_267_838" x1="7.5" y1="3" x2="8.31275" y2="22.6088" gradientUnits="userSpaceOnUse">
<stop stop-color="#009DDF"/>
<stop offset="0.5" stop-color="#01D44A"/>
<stop offset="1" stop-color="#9DCF00"/>
</linearGradient>
<linearGradient id="paint1_linear_267_838" x1="7.5" y1="3" x2="8.31275" y2="22.6088" gradientUnits="userSpaceOnUse">
<stop stop-color="#009DDF"/>
<stop offset="0.5" stop-color="#01D44A"/>
<stop offset="1" stop-color="#9DCF00"/>
</linearGradient>
</defs>
</svg>
