<svg width="0" height="0" class="hidden">  
 
  <symbol xmlns="http://www.w3.org/2000/svg" viewBox="0 0 28 28" id="camera">
    <path fill-rule="evenodd" clip-rule="evenodd" d="M11.5735 23.8276H16.4267C19.8347 23.8276 21.5387 23.8276 22.7628 23.0246C23.2927 22.6769 23.7477 22.2302 24.1017 21.7099C24.9196 20.5081 24.9196 18.8351 24.9196 15.489C24.9196 12.143 24.9196 10.4699 24.1017 9.26812C23.7477 8.74784 23.2927 8.30113 22.7628 7.95349C21.9762 7.4375 20.9915 7.25306 19.4839 7.18714C18.7645 7.18714 18.145 6.65189 18.0039 5.95924C17.7923 4.92028 16.8632 4.17241 15.784 4.17241H12.2162C11.1371 4.17241 10.2079 4.92028 9.99628 5.95924C9.85518 6.65189 9.23575 7.18714 8.51631 7.18714C7.00869 7.25306 6.02399 7.4375 5.23744 7.95349C4.70753 8.30113 4.25254 8.74784 3.89847 9.26812C3.08057 10.4699 3.08057 12.143 3.08057 15.489C3.08057 18.8351 3.08057 20.5081 3.89847 21.7099C4.25254 22.2302 4.70753 22.6769 5.23744 23.0246C6.46151 23.8276 8.16552 23.8276 11.5735 23.8276ZM14.0001 11.0219C11.4873 11.0219 9.4503 13.0219 9.4503 15.489C9.4503 17.9561 11.4873 19.9561 14.0001 19.9561C16.5129 19.9561 18.5499 17.9561 18.5499 15.489C18.5499 13.0219 16.5129 11.0219 14.0001 11.0219ZM14.0001 12.8088C12.4924 12.8088 11.2702 14.0088 11.2702 15.489C11.2702 16.9693 12.4924 18.1693 14.0001 18.1693C15.5078 18.1693 16.73 16.9693 16.73 15.489C16.73 14.0088 15.5078 12.8088 14.0001 12.8088ZM19.1566 11.9154C19.1566 11.4219 19.564 11.0219 20.0665 11.0219H21.2798C21.7824 11.0219 22.1898 11.4219 22.1898 11.9154C22.1898 12.4088 21.7824 12.8088 21.2798 12.8088H20.0665C19.564 12.8088 19.1566 12.4088 19.1566 11.9154Z"></path>
  </symbol>

<symbol fill="none" xmlns="http://www.w3.org/2000/svg" viewBox="0 0 15 14" id="check">
  <path d="M1.16669 8.05L4.83335 12.25L14 1.75" stroke="#2A2A2A" stroke-width="2" stroke-linecap="round" stroke-linejoin="round"></path>
</symbol>

<symbol fill="none" xmlns="http://www.w3.org/2000/svg" viewBox="0 0 6 12" id="arrowNext">
  <path d="M1 1.33337L5 6.00004L1 10.6667" stroke-width="1.5" stroke-linecap="round" stroke-linejoin="round"></path>
</symbol>


<!-- Card -->   

  <symbol fill="none" xmlns="http://www.w3.org/2000/svg" viewBox="0 0 16 16" id="clock">
    <g clip-path="url(#clip0_163_74)">
      <path fill-rule="evenodd" clip-rule="evenodd" d="M7.99992 2.08334C4.73223 2.08334 2.08325 4.73233 2.08325 8.00001C2.08325 11.2677 4.73223 13.9167 7.99992 13.9167C11.2676 13.9167 13.9166 11.2677 13.9166 8.00001C13.9166 4.73233 11.2676 2.08334 7.99992 2.08334ZM0.583252 8.00001C0.583252 3.9039 3.90381 0.583344 7.99992 0.583344C12.096 0.583344 15.4166 3.9039 15.4166 8.00001C15.4166 12.0961 12.096 15.4167 7.99992 15.4167C3.90381 15.4167 0.583252 12.0961 0.583252 8.00001Z" fill="url(#paint0_linear_163_74)"></path>
      <path fill-rule="evenodd" clip-rule="evenodd" d="M7.99992 4.58334C8.41413 4.58334 8.74992 4.91913 8.74992 5.33334V7.68935L10.1969 9.13635C10.4898 9.42924 10.4898 9.90411 10.1969 10.197C9.90402 10.4899 9.42915 10.4899 9.13626 10.197L7.46959 8.53034C7.32894 8.38969 7.24992 8.19892 7.24992 8.00001V5.33334C7.24992 4.91913 7.5857 4.58334 7.99992 4.58334Z" fill="url(#paint1_linear_163_74)"></path>
    </g>
    <defs>
      <linearGradient id="paint0_linear_163_74" x1="0.583252" y1="8.00001" x2="15.4166" y2="8.00001" gradientUnits="userSpaceOnUse">
        <stop stop-color="#5AE819"></stop>
        <stop offset="1" stop-color="#42B60A"></stop>
      </linearGradient>
      <linearGradient id="paint1_linear_163_74" x1="0.583252" y1="8.00001" x2="15.4166" y2="8.00001" gradientUnits="userSpaceOnUse">
        <stop stop-color="#5AE819"></stop>
        <stop offset="1" stop-color="#42B60A"></stop>
      </linearGradient>
      <clipPath id="clip0_163_74">
        <rect width="16" height="16" fill="white"></rect>
      </clipPath>
    </defs>
  </symbol>


 <!-- Footer-->  

  <symbol fill="none" xmlns="http://www.w3.org/2000/svg" viewBox="0 0 25 24" id="home">
    <path d="M14 15.5C14 13.6144 14 12.6716 14.5858 12.0858C15.1716 11.5 16.1144 11.5 18 11.5C19.8856 11.5 20.8284 11.5 21.4142 12.0858C22 12.6716 22 13.6144 22 15.5V17.5C22 19.3856 22 20.3284 21.4142 20.9142C20.8284 21.5 19.8856 21.5 18 21.5C16.1144 21.5 15.1716 21.5 14.5858 20.9142C14 20.3284 14 19.3856 14 17.5V15.5Z" stroke="#AAAAAA" stroke-width="1.5"></path>
    <path d="M2.5 8.5C2.5 10.3856 2.5 11.3284 3.08579 11.9142C3.67157 12.5 4.61438 12.5 6.5 12.5C8.38562 12.5 9.32843 12.5 9.91421 11.9142C10.5 11.3284 10.5 10.3856 10.5 8.5V6.5C10.5 4.61438 10.5 3.67157 9.91421 3.08579C9.32843 2.5 8.38562 2.5 6.5 2.5C4.61438 2.5 3.67157 2.5 3.08579 3.08579C2.5 3.67157 2.5 4.61438 2.5 6.5V8.5Z" stroke="#AAAAAA" stroke-width="1.5"></path>
    <path d="M14 5.5C14 4.56812 14 4.10218 14.1522 3.73463C14.3552 3.24458 14.7446 2.85523 15.2346 2.65224C15.6022 2.5 16.0681 2.5 17 2.5H19C19.9319 2.5 20.3978 2.5 20.7654 2.65224C21.2554 2.85523 21.6448 3.24458 21.8478 3.73463C22 4.10218 22 4.56812 22 5.5C22 6.43188 22 6.89782 21.8478 7.26537C21.6448 7.75542 21.2554 8.14477 20.7654 8.34776C20.3978 8.5 19.9319 8.5 19 8.5H17C16.0681 8.5 15.6022 8.5 15.2346 8.34776C14.7446 8.14477 14.3552 7.75542 14.1522 7.26537C14 6.89782 14 6.43188 14 5.5Z" stroke="#AAAAAA" stroke-width="1.5"></path>
    <path d="M2.5 18.5C2.5 19.4319 2.5 19.8978 2.65224 20.2654C2.85523 20.7554 3.24458 21.1448 3.73463 21.3478C4.10218 21.5 4.56812 21.5 5.5 21.5H7.5C8.43188 21.5 8.89782 21.5 9.26537 21.3478C9.75542 21.1448 10.1448 20.7554 10.3478 20.2654C10.5 19.8978 10.5 19.4319 10.5 18.5C10.5 17.5681 10.5 17.1022 10.3478 16.7346C10.1448 16.2446 9.75542 15.8552 9.26537 15.6522C8.89782 15.5 8.43188 15.5 7.5 15.5H5.5C4.56812 15.5 4.10218 15.5 3.73463 15.6522C3.24458 15.8552 2.85523 16.2446 2.65224 16.7346C2.5 17.1022 2.5 17.5681 2.5 18.5Z" stroke="#AAAAAA" stroke-width="1.5"></path>
  </symbol>

  <symbol fill="none" xmlns="http://www.w3.org/2000/svg" viewBox="0 0 25 24" id="map">
    <path d="M12.5 22C7.78595 22 5.42893 22 3.96447 20.5355C2.5 19.0711 2.5 16.714 2.5 12C2.5 7.28595 2.5 4.92893 3.96447 3.46447C5.42893 2 7.78595 2 12.5 2C17.214 2 19.5711 2 21.0355 3.46447C22.5 4.92893 22.5 7.28595 22.5 12C22.5 16.714 22.5 19.0711 21.0355 20.5355C19.5711 22 17.214 22 12.5 22Z" stroke="#AAAAAA" stroke-width="1.5"></path>
    <path d="M6 8.75732C6 6.95835 7.567 5.5 9.5 5.5C11.433 5.5 13 6.95835 13 8.75732C13 10.5422 11.8829 12.625 10.14 13.3698C9.73374 13.5434 9.26626 13.5434 8.85997 13.3698C7.11708 12.625 6 10.5422 6 8.75732Z" stroke="#AAAAAA" stroke-width="1.5"></path>
    <path d="M14.5004 13.9998L21.0004 20.4998M14.5004 13.9998L6.89453 21.6057M14.5004 13.9998L22.1072 6.39307" stroke="#AAAAAA" stroke-width="1.5" stroke-linecap="round"></path>
    <path d="M10.5 9C10.5 9.55228 10.0523 10 9.5 10C8.94772 10 8.5 9.55228 8.5 9C8.5 8.44772 8.94772 8 9.5 8C10.0523 8 10.5 8.44772 10.5 9Z" fill="#AAAAAA"></path>
  </symbol>
  
  <symbol fill="none" xmlns="http://www.w3.org/2000/svg" viewBox="0 0 25 24" id="avatar">
    <circle cx="12.5" cy="6" r="4" stroke="#AAAAAA" stroke-width="1.5"></circle>
    <path d="M20.5 17.5C20.5 19.9853 20.5 22 12.5 22C4.5 22 4.5 19.9853 4.5 17.5C4.5 15.0147 8.08172 13 12.5 13C16.9183 13 20.5 15.0147 20.5 17.5Z" stroke="#AAAAAA" stroke-width="1.5"></path>
  </symbol>
  
  <symbol fill="none" xmlns="http://www.w3.org/2000/svg" viewBox="0 0 21 19" id="notification">
    <path d="M17.2491 8.70957V8.00497C17.2491 4.13623 14.2274 1 10.5 1C6.77256 1 3.75087 4.13623 3.75087 8.00497V8.70957C3.75087 9.55516 3.50972 10.3818 3.0578 11.0854L1.95036 12.8095C0.938823 14.3843 1.71105 16.5249 3.47036 17.0229C8.07274 18.3257 12.9273 18.3257 17.5296 17.0229C19.289 16.5249 20.0612 14.3843 19.0496 12.8095L17.9422 11.0854C17.4903 10.3818 17.2491 9.55516 17.2491 8.70957Z" stroke="#AAAAAA" stroke-width="1.5"></path>
  </symbol>


 
    
</svg>